<?xml version="1.0" encoding="utf-8"?>
<!-- Svg Vector Icons : http://www.onlinewebfonts.com/icon -->
<!DOCTYPE svg PUBLIC "-//W3C//DTD SVG 1.1//EN" "http://www.w3.org/Graphics/SVG/1.1/DTD/svg11.dtd">
<svg version="1.1" xmlns="http://www.w3.org/2000/svg" xmlns:xlink="http://www.w3.org/1999/xlink" x="0px" y="0px" viewBox="0 0 1000 1000" enable-background="new 0 0 1000 1000" xml:space="preserve">
<metadata> Svg Vector Icons : http://www.onlinewebfonts.com/icon </metadata>
<g><path fill="#77bae1" d="M962.5,265.5l-99.4,99.4l-232-232l99.4-99.4c36.6-36.6,96-36.6,132.6,0l99.4,99.4C999.2,169.5,999.2,228.9,962.5,265.5z M763.7,464.3l-232-232l49.7-49.7l232,232L763.7,464.3z M318.1,895.6c-63.8,23.9-180.7,67.7-256.7,96.3c-14.4,5.7-68.7,2.8-45.9-50.5c25.7-74.3,63.6-183.9,85.3-246.5c15.8-44.1,21.9-55.7,53.7-85.3C247.2,517,482,282.1,482,282.1l232,232c0,0-220.6,229.4-311.8,324.3C372.5,872.3,359.5,880.3,318.1,895.6z"/></g>
</svg>