<?xml version="1.0" encoding="iso-8859-1"?>
<!-- Generator: Adobe Illustrator 19.0.0, SVG Export Plug-In . SVG Version: 6.00 Build 0)  -->
<svg version="1.1" id="Layer_1" xmlns="http://www.w3.org/2000/svg" xmlns:xlink="http://www.w3.org/1999/xlink" x="0px" y="0px"
	 viewBox="0 0 512 512" style="enable-background:new 0 0 512 512;" xml:space="preserve">
<g>
	<g>
		<path style="fill:#F0F8FF;" d="M388.226,0H123.774C76.607,0,38.233,38.374,38.233,85.541v215.933
			c0,47.167,38.374,85.541,85.541,85.541h44.257l-8.725,103.57c-1.454,17.244,18.352,27.698,31.795,17.234l155.205-120.804h41.92
			c47.167,0,85.541-38.373,85.541-85.541V85.541C473.766,38.374,435.393,0,388.226,0z M346.991,282.558H165.01
			c-10.902,0-19.74-8.838-19.74-19.74c0-10.902,8.838-19.74,19.74-19.74h181.982c10.902,0,19.74,8.838,19.74,19.74
			C366.731,273.719,357.893,282.558,346.991,282.558z M346.991,213.247H165.01c-10.902,0-19.74-8.838-19.74-19.74
			c0-10.902,8.838-19.74,19.74-19.74h181.982c10.902,0,19.74,8.838,19.74,19.74C366.731,204.409,357.893,213.247,346.991,213.247z
			 M346.991,143.937H165.01c-10.902,0-19.74-8.838-19.74-19.74s8.838-19.74,19.74-19.74h181.982c10.902,0,19.74,8.838,19.74,19.74
			S357.893,143.937,346.991,143.937z"/>
	</g>
</g>
<g>
</g>
<g>
</g>
<g>
</g>
<g>
</g>
<g>
</g>
<g>
</g>
<g>
</g>
<g>
</g>
<g>
</g>
<g>
</g>
<g>
</g>
<g>
</g>
<g>
</g>
<g>
</g>
<g>
</g>
</svg>
