<?xml version="1.0" encoding="utf-8"?>
<!-- Svg Vector Icons : http://www.onlinewebfonts.com/icon -->
<!DOCTYPE svg PUBLIC "-//W3C//DTD SVG 1.1//EN" "http://www.w3.org/Graphics/SVG/1.1/DTD/svg11.dtd">
<svg version="1.1" xmlns="http://www.w3.org/2000/svg" xmlns:xlink="http://www.w3.org/1999/xlink" x="0px" y="0px" viewBox="0 0 1000 1000" enable-background="new 0 0 1000 1000" xml:space="preserve">
<metadata> Svg Vector Icons : http://www.onlinewebfonts.com/icon </metadata>
<g><path d="M500,10C229.4,10,10,229.4,10,500s219.4,490,490,490s490-219.4,490-490S770.6,10,500,10z M788.5,846.4C757.1,830.7,652.2,809.9,627,794c-28.9-18.2-19.6-117.6-19.6-117.6l19.6-17.2c0,0,5-44.9,13.5-61.3c19.1-36.6,39.2-98,39.2-98s19.6-14.3,19.6-39.2c0-24.9-19.6-39.2-19.6-39.2S687,352.2,687,304c0-101.3-63.6-156.8-177.8-156.8c-114.3,0-197.6,47.2-197.6,156.8c0,48.2,15.3,117.6,15.3,117.6s-19.6,14.3-19.6,39.2c0,24.9,19.6,39.2,19.6,39.2s22.9,71.1,39.2,98c9.5,15.7,13.5,61.3,13.5,61.3l19.6,17.2c0,0,9.3,99.4-19.6,117.6c-26.1,16.4-137.5,38.1-164.7,53.9c1.4,1.4,78.7,67.9,196.1,94C204.6,900.6,49.2,718.5,49.2,500C49.2,251,251,49.2,500,49.2C749,49.2,950.8,251,950.8,500C950.8,639.2,887.7,763.7,788.5,846.4z"/></g>
</svg>